<?xml version="1.0" standalone="no"?>
<!DOCTYPE svg PUBLIC "-//W3C//DTD SVG 20010904//EN"
 "http://www.w3.org/TR/2001/REC-SVG-20010904/DTD/svg10.dtd">
<svg version="1.0" xmlns="http://www.w3.org/2000/svg"
 width="512.000000pt" height="512.000000pt" viewBox="0 0 512.000000 512.000000"
 preserveAspectRatio="xMidYMid meet">

<g transform="translate(0.000000,512.000000) scale(0.100000,-0.100000)"
fill="#000000" stroke="none">
<path d="M3922 4721 c-136 -132 -308 -301 -382 -375 l-135 -136 -1186 0 -1186
0 -6 108 c-7 124 -31 210 -77 281 -85 134 -239 211 -393 198 -182 -15 -347
-168 -386 -355 -8 -37 -11 -495 -11 -1535 0 -1615 -3 -1533 56 -1649 35 -69
126 -158 195 -191 31 -14 85 -31 120 -36 89 -15 3969 -15 4058 0 173 28 309
157 356 336 13 49 15 258 15 1540 0 1051 -3 1497 -11 1535 -40 188 -201 338
-382 355 -61 5 -67 4 -91 -20 l-26 -26 0 -271 0 -271 -87 3 -88 3 -3 352 -2
352 -26 20 c-53 41 -59 37 -322 -218z m188 -1361 l0 -1320 -75 0 -75 0 0 84
c0 46 -3 92 -6 101 -9 23 -60 46 -88 39 -47 -11 -60 -38 -64 -134 l-4 -90 -34
0 -34 0 0 50 c0 80 -49 118 -113 89 -31 -14 -47 -48 -47 -99 0 -39 -1 -40 -35
-40 l-35 0 0 83 c0 90 -13 121 -56 137 -28 11 -71 -2 -90 -28 -9 -11 -13 -49
-14 -104 l0 -88 -34 0 c-33 0 -34 1 -38 52 -9 85 -73 123 -132 77 -22 -18 -26
-28 -26 -75 l0 -54 -40 0 -40 0 0 86 c0 97 -7 116 -49 134 -24 9 -35 9 -57 -2
-41 -19 -54 -53 -54 -140 l0 -78 -35 0 -35 0 0 50 c0 62 -31 100 -80 100 -49
0 -80 -38 -80 -100 l0 -50 -35 0 -35 0 0 78 c0 87 -13 121 -54 140 -22 11 -33
11 -57 2 -42 -18 -49 -37 -49 -134 l0 -86 -40 0 -40 0 0 54 c0 47 -4 57 -26
75 -59 46 -123 8 -132 -77 -4 -51 -5 -52 -38 -52 l-34 0 0 88 c-1 55 -5 93
-14 104 -19 26 -62 39 -90 28 -43 -16 -56 -47 -56 -137 l0 -83 -35 0 c-34 0
-35 1 -35 40 0 51 -16 85 -47 99 -37 17 -62 13 -88 -14 -20 -19 -25 -34 -25
-75 l0 -50 -132 0 -133 0 170 170 c297 296 2490 2469 2493 2470 1 0 2 -594 2
-1320z m-3405 1252 c54 -28 109 -87 137 -147 l23 -50 3 -1287 c1 -709 -1
-1288 -5 -1288 -5 0 -25 11 -44 24 -57 39 -150 66 -227 66 -86 0 -156 -20
-221 -65 l-51 -34 2 1297 3 1297 28 57 c32 65 90 120 151 142 54 21 150 15
201 -12z m3973 -22 c23 -16 53 -47 67 -69 57 -86 55 -26 55 -1412 l0 -1278
-52 35 c-28 19 -71 40 -95 47 l-43 11 0 1348 c0 1125 2 1348 13 1348 8 0 33
-13 55 -30z m-1678 -783 c-135 -134 -602 -597 -1037 -1028 -763 -756 -793
-787 -793 -822 0 -24 7 -44 20 -57 20 -20 33 -20 1530 -20 1497 0 1510 0 1530
20 20 20 20 33 20 1085 l0 1065 90 0 90 0 0 -1109 c0 -610 3 -1117 6 -1126 9
-22 57 -45 96 -45 48 0 128 -41 167 -85 107 -122 106 -293 -1 -410 -91 -99
137 -90 -2158 -90 -2295 0 -2067 -9 -2158 90 -169 185 -51 496 188 494 144 0
247 -98 272 -257 6 -43 17 -75 31 -90 29 -31 77 -29 108 4 l24 26 3 1299 2
1299 1108 0 1107 0 -245 -243z"/>
<path d="M3613 3647 c-13 -7 -273 -262 -578 -566 -512 -511 -555 -557 -555
-588 0 -40 27 -70 72 -78 18 -3 279 -5 580 -3 l546 3 26 24 26 24 0 574 0 574
-25 24 c-26 27 -58 31 -92 12z m-43 -672 l0 -405 -405 0 c-223 0 -405 3 -405
8 0 6 799 800 808 801 1 1 2 -181 2 -404z"/>
<path d="M395 786 c-89 -28 -162 -91 -206 -176 -33 -64 -33 -184 0 -257 27
-62 101 -135 168 -166 l48 -22 1990 -2 1990 -3 265 124 c146 69 275 133 288
144 27 25 29 71 5 101 -10 11 -139 77 -286 146 l-268 125 -1977 -1 c-1565 0
-1985 -3 -2017 -13z m275 -306 l0 -160 -108 0 c-95 0 -115 3 -153 23 -115 61
-116 216 -1 277 30 15 58 19 150 20 l112 0 0 -160z m3620 0 l0 -160 -1730 0
-1730 0 0 160 0 160 1730 0 1730 0 0 -160z m288 55 c56 -26 102 -51 102 -54 0
-5 -167 -88 -222 -109 -4 -2 -8 47 -8 108 0 86 3 111 13 107 6 -2 58 -26 115
-52z"/>
</g>
</svg>
